<svg width="82" height="27" viewBox="0 0 82 27" fill="none" xmlns="http://www.w3.org/2000/svg">
<path fill-rule="evenodd" clip-rule="evenodd" d="M81.9935 26.0496L79.0607 26.0496L79.0607 13.246L68.7147 13.246L68.7147 20.65L65.7793 20.65L65.7793 13.246L22.3021 13.246L11.8242 23.7107L-0.000809891 11.9005L11.8242 0.0903251L22.2158 10.4689L81.9961 10.4689L81.9961 26.047L81.9935 26.0496ZM15.8444 9.74103L18.0085 11.9024L15.771 14.137L16.921 15.2856L20.3104 11.9005L16.9963 8.59054L15.8444 9.74103ZM14.1749 8.07371L15.1913 7.05865L11.8068 3.55312L8.62645 6.72949L9.61064 7.78848L11.75 5.65181L14.1749 8.07371ZM7.94007 9.45695L6.90248 8.34051L3.33802 11.9005L6.53851 15.097L7.61488 14.0231L5.49155 11.9024L7.94007 9.45695ZM11.75 18.153L14.1016 15.8044L15.1764 16.8778L11.8227 20.2254L8.28261 16.6898L9.28429 15.6904L11.75 18.153ZM11.75 8.98645L8.83038 11.9024L11.75 14.8184L14.6696 11.9024L11.75 8.98645Z" fill="#DCCBB3"/>
</svg>
